<svg xmlns="http://www.w3.org/2000/svg" viewBox="0 0 64 80" fill="none" stroke="currentColor" stroke-width="2.5" stroke-linejoin="round" stroke-linecap="round" role="img" aria-label="Betulon — birch leaf bookmark with network nodes">
  <title>Betulon</title>
  
  <path d="M32 5 L32 13"></path>
  
  <path d="M32 13 C 14 16, 7 30, 13 48 C 15 54, 17 64, 16 76 L 32 68 L 48 76 C 47 64, 49 54, 51 48 C 57 30, 50 16, 32 13 Z"></path>
  
  <path d="M32 16 L32 58"></path>
  
  <path d="M32 26 L20 32"></path>
  <path d="M32 26 L44 32"></path>
  <path d="M32 42 L18 50"></path>
  <path d="M32 42 L46 50"></path>
  
  <circle cx="32" cy="16" r="2.6" fill="currentColor" stroke="none"></circle>
  <circle cx="20" cy="32" r="2.6" fill="currentColor" stroke="none"></circle>
  <circle cx="44" cy="32" r="2.6" fill="currentColor" stroke="none"></circle>
  <circle cx="18" cy="50" r="2.6" fill="currentColor" stroke="none"></circle>
  <circle cx="46" cy="50" r="2.6" fill="currentColor" stroke="none"></circle>
  <circle cx="32" cy="58" r="2.6" fill="currentColor" stroke="none"></circle>
</svg>